<?xml version="1.0" encoding="UTF-8" standalone="no"?>
<!-- Created with Inkscape (http://www.inkscape.org/) -->

<svg
   xmlns:dc="http://purl.org/dc/elements/1.1/"
   xmlns:cc="http://creativecommons.org/ns#"
   xmlns:rdf="http://www.w3.org/1999/02/22-rdf-syntax-ns#"
   xmlns:svg="http://www.w3.org/2000/svg"
   xmlns="http://www.w3.org/2000/svg"
   xmlns:sodipodi="http://sodipodi.sourceforge.net/DTD/sodipodi-0.dtd"
   xmlns:inkscape="http://www.inkscape.org/namespaces/inkscape"
   width="322.79373"
   height="318.60583"
   id="svg2"
   version="1.1"
   inkscape:version="0.48.3.1 r9886"
   sodipodi:docname="Documento nuevo 1">
  <defs
     id="defs4" />
  <sodipodi:namedview
     id="base"
     pagecolor="#ffffff"
     bordercolor="#666666"
     borderopacity="1.0"
     inkscape:pageopacity="0.0"
     inkscape:pageshadow="2"
     inkscape:zoom="0.49497475"
     inkscape:cx="611.39056"
     inkscape:cy="60.772966"
     inkscape:document-units="px"
     inkscape:current-layer="layer2"
     showgrid="false"
     inkscape:object-nodes="true"
     fit-margin-top="0"
     fit-margin-left="0"
     fit-margin-right="0"
     fit-margin-bottom="0"
     inkscape:window-width="1360"
     inkscape:window-height="742"
     inkscape:window-x="0"
     inkscape:window-y="0"
     inkscape:window-maximized="1" />
  <metadata
     id="metadata7">
    <rdf:RDF>
      <cc:Work
         rdf:about="">
        <dc:format>image/svg+xml</dc:format>
        <dc:type
           rdf:resource="http://purl.org/dc/dcmitype/StillImage" />
        <dc:title></dc:title>
      </cc:Work>
    </rdf:RDF>
  </metadata>
  <g
     inkscape:groupmode="layer"
     id="layer2"
     inkscape:label="Capa"
     style="display:inline"
     transform="translate(-199.87912,-176.45763)">
    <g
       id="g3939">
      <g
         id="g3910">
        <path
           style="fill:#ffffff;stroke:#000000;stroke-width:1px;stroke-linecap:butt;stroke-linejoin:miter;stroke-opacity:1"
           d="m 268.21429,178.07647 c -7.0525,3.20435 -11.4449,10.57275 -16.07143,16.78571 -6.62315,8.89423 -11.83632,18.83478 -16.42857,28.92857 -2.97802,6.54571 -5.60534,13.33213 -7.14286,20.35715 -2.45418,11.21326 -3.3543,22.80788 -3.21429,34.28571 0.11113,9.11016 0.94686,18.31868 3.21429,27.14286 2.36575,9.20684 6.25746,18.03217 10.71428,26.42857 11.02203,20.76486 24.56799,40.23968 39.28572,58.57143 6.80022,8.47005 14.10671,16.67669 22.5,23.57143 9.59521,7.88207 20.3495,14.39204 31.42857,20 11.73624,5.9406 24.07508,10.899 36.78571,14.28571 19.19729,5.11505 39.23353,6.32 58.92858,8.92857 16.74718,2.21813 33.49044,4.76413 50.35714,5.71429 8.98906,0.50638 18.27308,2.16221 27.00992,-0.012 4.62259,-1.15036 9.54869,-3.05685 12.62691,-6.69226 2.06421,-2.43785 2.36233,-5.96764 3.03045,-9.09137 0.53083,-2.48185 1.24871,-5.08614 0.75762,-7.57615 -1.14403,-5.80063 -5.04244,-10.74581 -8.33376,-15.65736 -3.894,-5.81092 -8.32066,-11.33675 -13.38452,-16.16244 -7.92215,-7.54956 -16.84642,-14.12428 -26.26397,-19.69798 -13.51963,-8.00148 -28.39905,-13.4778 -42.93148,-19.44543 -11.45636,-4.70447 -23.16031,-8.78982 -34.85026,-12.87945 -9.37226,-3.27881 -18.83816,-6.28435 -28.28427,-9.34391 -10.58677,-3.42902 -21.54828,-5.81974 -31.81981,-10.10152 -7.36787,-3.07137 -14.57631,-6.67653 -21.2132,-11.11168 -9.39146,-6.27591 -18.16968,-13.5885 -26.01143,-21.71828 -7.24761,-7.51382 -13.19573,-16.20361 -19.1929,-24.74874 -4.52115,-6.442 -9.64395,-12.66751 -12.62691,-19.95051 -3.16654,-7.73122 -4.31437,-16.20037 -5.3033,-24.4962 -0.82728,-6.93978 -1.89609,-14.11158 -0.50507,-20.96067 1.54468,-7.60568 5.36038,-14.71027 9.59645,-21.2132 3.51424,-5.39483 15.64136,-8.57867 12.87944,-14.39467 -0.79257,-1.66899 -3.85492,-0.51047 -5.53705,0.25382 z"
           id="path3051"
           inkscape:connector-curvature="0"
           sodipodi:nodetypes="sssssssssssssssssssssssssssssssss" />
        <path
           style="fill:#ffffff;stroke:#000000;stroke-width:1px;stroke-linecap:butt;stroke-linejoin:miter;stroke-opacity:1"
           d="m 327.67857,431.91575 c 0,0 -8.61692,4.03324 -11.69643,5.44643 -3.68958,1.69316 -7.14515,3.88615 -10.89285,5.44643 -4.81352,2.00401 -9.67981,4.13408 -14.82143,5 -3.52196,0.59314 -7.31004,1.1696 -10.71429,0.0893 -2.47987,-0.78696 -5.04817,-2.2948 -6.33928,-4.55358 -1.63132,-2.85397 -1.64511,-6.62134 -0.89286,-9.82142 0.58404,-2.48452 2.56913,-4.41664 4.01786,-6.51786 1.19278,-1.72999 2.46151,-3.41339 3.83928,-5 1.36611,-1.57318 2.88133,-3.01166 4.375,-4.46429 1.19271,-1.15994 2.08281,-2.86536 3.66072,-3.39285 3.31982,-1.1098 12.76786,0.35713 12.76786,0.35713"
           id="path3053"
           inkscape:connector-curvature="0"
           sodipodi:nodetypes="cssssssssssc" />
        <path
           style="fill:#ffffff;stroke:#000000;stroke-width:1px;stroke-linecap:butt;stroke-linejoin:miter;stroke-opacity:1"
           d="m 394.3383,453.72053 c 0,0 -3.94867,1.8857 -5.80838,3.03046 -1.72085,1.05928 -4.00201,1.73763 -4.92449,3.53553 -1.13364,2.20944 -0.35844,4.99259 0,7.44988 0.65929,4.51982 2.1102,8.93573 3.91434,13.13198 1.2661,2.94482 2.51019,6.0888 4.79823,8.33376 2.36657,2.32202 5.48527,4.03861 8.71256,4.79822 2.99334,0.70455 6.40833,0.8719 9.21764,-0.3788 2.41999,-1.07737 3.85369,-3.65239 5.55584,-5.68211 2.46173,-2.93549 5.06799,-5.87419 6.69226,-9.34391 1.41964,-3.03261 1.80449,-6.45279 2.52538,-9.72272 0.60786,-2.75725 1.64127,-5.51311 1.51523,-8.33376 -0.0565,-1.26493 -1.01015,-3.6618 -1.01015,-3.6618"
           id="path3825"
           inkscape:connector-curvature="0"
           sodipodi:nodetypes="csssssssssssc" />
        <path
           style="fill:#ffffff;stroke:#000000;stroke-width:1px;stroke-linecap:butt;stroke-linejoin:miter;stroke-opacity:1"
           d="m 239.78496,333.76491 c 0,0 -5.95871,-5.50488 -9.72272,-6.56599 -1.82478,-0.51442 -3.80103,0.48921 -5.68211,0.25254 -2.44397,-0.30749 -4.81297,-1.16242 -7.07106,-2.14657 -3.52726,-1.53729 -7.0111,-3.3551 -9.97526,-5.80838 -2.62019,-2.16859 -5.69573,-4.45047 -6.69226,-7.70241 -0.81987,-2.67545 0.63604,-5.56063 1.01015,-8.33376 0.42098,-3.12059 0.46399,-6.33397 1.38896,-9.34391 0.741,-2.41129 1.68116,-4.86981 3.283,-6.81853 1.20271,-1.46316 2.80551,-2.6615 4.54568,-3.40927 2.07888,-0.89332 4.43059,-1.06862 6.69226,-1.13642 1.94666,-0.0584 4.13216,-0.36019 5.80838,0.63135 0.8844,0.52315 1.76777,2.52538 1.76777,2.52538"
           id="path3829"
           inkscape:connector-curvature="0"
           sodipodi:nodetypes="csssssssssssc" />
        <path
           style="fill:#ffffff;stroke:#000000;stroke-width:1px;stroke-linecap:butt;stroke-linejoin:miter;stroke-opacity:1"
           d="m 434.28572,369.50503 c 0,0 -4.62132,-9.05935 -6.60715,-12.67856 -2.0316,-3.70262 -3.31524,-7.95052 -6.16071,-11.07143 -3.23141,-3.54422 -7.42558,-6.33442 -11.875,-8.125 -2.18329,-0.87862 -4.6267,-0.8879 -6.96429,-1.16072 -5.38253,-0.6282 -11.10173,1.99818 -13.75,3.83929 -1.57745,1.09666 0.54039,13.21429 0.80357,13.21429"
           id="path3906"
           inkscape:connector-curvature="0"
           sodipodi:nodetypes="csssssc" />
      </g>
      <g
         id="g3917">
        <path
           style="fill:#ff0000;fill-opacity:1;stroke:none"
           d="m 248.75006,220.9435 c -0.15691,0.94688 -0.32083,1.92327 -0.75761,2.77792 -0.3814,0.74629 -1.15662,1.23291 -1.57836,1.95717 -0.43264,0.74297 -0.17413,2.02252 -0.94702,2.39911 -1.06551,0.51916 -2.24389,-0.79397 -3.40927,-1.01015 -0.78874,-0.14631 -1.66468,-0.51209 -2.39911,-0.1894 -1.12544,0.49449 -1.67554,1.82978 -2.27284,2.90419 -0.44643,0.80302 -0.60157,1.73716 -0.94702,2.58851 -0.40733,1.00386 -0.99874,1.93453 -1.32582,2.96733 -0.29782,0.94038 -0.0826,2.04557 -0.56822,2.90418 -0.43277,0.76521 -1.28417,1.20217 -1.95717,1.76777 -0.65423,0.54982 -1.8309,1.26269 -2.0203,1.57836 -0.1894,0.31568 -0.69448,2.46225 -0.50508,2.71479 0.18941,0.25254 1.4424,1.54608 2.39911,1.57836 1.66705,0.0563 2.93535,-1.58866 4.35629,-2.46224 0.64639,-0.3974 1.14164,-1.36098 1.89403,-1.26269 0.4731,0.0618 0.77828,0.627 0.94702,1.07328 0.52101,1.37793 0.27479,2.97214 0,4.41942 -0.4177,2.19997 -1.53595,4.21161 -2.46224,6.25032 -0.83322,1.83385 -1.62838,3.7124 -2.77792,5.36643 -1.05431,1.51701 -3.04074,2.38772 -3.72494,4.10375 -0.71723,1.79887 -0.44339,3.89794 -0.12627,5.80838 0.30091,1.81274 1.20764,3.4725 1.89403,5.17703 0.72154,1.79184 2.16634,3.3791 2.33598,5.3033 0.22637,2.56767 -1.34902,4.98082 -1.8309,7.51301 -0.46069,2.42087 -1.23134,4.86923 -1.01015,7.3236 0.12126,1.34552 0.67048,2.63695 1.26269,3.85121 0.94412,1.93583 2.22659,3.70626 3.59867,5.36644 1.8107,2.19089 4.61036,3.55349 6.06091,5.99778 1.31889,2.22244 1.89419,4.8779 2.14658,7.44987 0.19389,1.97588 0.008,4.01684 -0.50508,5.93465 -0.5771,2.15532 -2.49887,3.85606 -2.84105,6.06091 -0.39712,2.55883 0.18865,5.24672 1.01015,7.70242 1.91045,5.71091 5.43097,10.79947 8.90197,15.7205 1.6683,2.36524 3.39027,4.7982 5.68211,6.56599 1.05824,0.81626 2.42946,1.12039 3.59867,1.76776 3.53042,1.95474 6.59071,4.7662 10.29092,6.37659 1.76012,0.76603 3.65324,1.26044 5.55584,1.51523 2.56561,0.34358 5.1954,0.30778 7.76555,0 2.30089,-0.27554 4.53832,-0.9673 6.7554,-1.6415 1.05105,-0.31962 2.1617,-0.55466 3.09359,-1.13642 0.59342,-0.37046 0.86611,-1.19127 1.51523,-1.45209 0.87873,-0.35308 2.0203,-0.12627 2.84105,0 0.82075,0.12627 2.31431,0.21177 3.34613,0.69448 0.70555,0.33008 1.57837,1.32582 1.8309,1.45209 0.25254,0.12627 2.20971,0.88388 2.58852,0.88388 0.37881,0 3.36268,0.40701 5.05076,0.37881 0.97363,-0.0163 2.65165,-0.1894 2.90419,-0.31567 0.25254,-0.12627 1.78711,-0.70627 2.71479,-0.94702 0.95109,-0.24682 2.27284,-0.31568 2.90418,-0.50508 0.63135,-0.18941 2.77792,-1.13641 3.53554,-1.51522 0.75761,-0.3788 2.71478,-1.6415 2.84105,-1.89404 0.12627,-0.25254 1.4521,-1.8309 1.6415,-2.20971 0.1894,-0.37881 0.8839,-2.14657 0.94702,-2.90419 0.0631,-0.75761 0.33122,-4.05059 0.12627,-6.06091 -0.17294,-1.69636 -0.69167,-3.3415 -1.13642,-4.98763 -0.38541,-1.42649 -0.5457,-2.97509 -1.32583,-4.23001 -1.6896,-2.7179 -4.68271,-4.36536 -6.9448,-6.62913 -1.31519,-1.31617 -2.42488,-2.84578 -3.85121,-4.04061 -1.60629,-1.34558 -3.5616,-2.21812 -5.24016,-3.4724 -1.2325,-0.92096 -2.53538,-1.79817 -3.53554,-2.96732 -1.0065,-1.17656 -1.40872,-2.78732 -2.39911,-3.97748 -0.95357,-1.14591 -2.27953,-1.9258 -3.34613,-2.96732 -0.88427,-0.86347 -1.85897,-1.67392 -2.52538,-2.71479 -0.68696,-1.07297 -0.74001,-2.47907 -1.45209,-3.53553 -3.01101,-4.46723 -7.96696,-7.28136 -11.55362,-11.30108 -2.7858,-3.12217 -5.19629,-6.56132 -7.70242,-9.91212 -10.98938,-11.63105 -11.95082,-16.04628 -17.12548,-24.51653 -1.72771,-2.83021 -3.62292,-5.62515 -4.73214,-8.75 -2.84693,-8.02026 -3.50077,-16.66829 -4.73214,-25.08929 -0.4979,-3.40499 -0.30194,-6.91379 -1.07143,-10.26786 -0.33262,-1.44983 -0.0454,-4.40758 -1.51786,-4.19642 -0.94783,0.13593 -0.022,1.92238 -0.17851,2.86703 z"
           id="path3853"
           inkscape:connector-curvature="0"
           sodipodi:nodetypes="ssssssssssssssssssssssssssssssssssssssssssssssssssssssssssssssssssccsssss" />
        <path
           style="fill:#ff0000;stroke:none"
           d="m 333.98169,411.7992 c 5.04426,-2.88589 9.85682,-6.35178 15.41641,-8.19419 3.22117,-0.90088 6.86072,-1.35861 9.99135,0.0767 2.82124,1.78427 3.08487,6.29764 0.45916,8.3844 -2.37168,2.3201 -6.37164,3.33164 -7.20464,6.93804 -0.71158,2.58339 -2.47676,5.28156 -5.33072,6.27133 -4.80771,2.07448 -9.17558,0.9262 -14.1379,2.26514 -2.7091,0.35274 -5.59149,0.47516 -8.14449,-0.66058 -1.37683,-3.90376 -5.12211,-7.31892 -9.47183,-6.91949 -2.35773,-0.0396 -5.27459,1.11749 -7.11709,-0.91393 -1.56172,-2.28323 0.68906,-5.2322 3.05649,-5.72138 4.82207,-1.06221 10.06048,-0.69642 14.44385,1.70533 1.94423,1.39278 4.51176,0.52466 6.05344,-1.05568 0.75337,-0.64014 1.2815,-1.50332 1.98597,-2.17566 z"
           id="path3855"
           inkscape:connector-curvature="0"
           sodipodi:nodetypes="ccccccccccccccc" />
        <path
           style="fill:#ff0000;stroke:none"
           d="m 350.39666,440.58855 c 13.56592,4.78929 27.24694,10.28393 41.76473,11.0839 2.20764,-0.14336 8.02795,0.95606 7.49367,-2.12623 -1.48036,-0.71988 -3.61993,-2.39398 -0.73971,-2.68226 3.07346,-2.92172 4.90145,-7.59349 3.27036,-11.71421 -1.21877,-4.6255 2.47069,-8.12955 4.92772,-11.48125 2.49355,-3.06467 0.50499,-6.60313 0.75192,-9.98774 0.25146,-3.61108 1.203,-8.1816 -1.9998,-10.81245 -4.40166,-3.51147 -8.3523,-7.5533 -12.93998,-10.82287 -2.69775,-2.02999 -4.57369,-4.93778 -5.45574,-8.17653 -2.10352,-4.51368 -7.57192,-6.41566 -12.2503,-5.40731 -5.05208,0.44466 -10.33573,2.48914 -13.0125,7.0655 -2.94085,3.39623 -3.27474,8.16493 -1.55163,12.19243 1.66353,4.32565 4.89645,8.09104 9.25738,9.83573 4.62905,1.06269 6.06934,6.00704 3.15375,9.61726 -0.69214,4.37224 -7.36961,4.88678 -6.78156,9.63013 1.35521,3.90268 -0.63032,9.7057 -5.3518,9.7741 -3.82095,-1.55459 -8.07045,0.49449 -10.27844,3.72564 -0.086,0.0954 -0.17205,0.19077 -0.25807,0.28616 z"
           id="path3864"
           inkscape:connector-curvature="0" />
        <path
           style="fill:#ff0000;stroke:none"
           d="m 498.00521,407.88486 c 1.0338,6.25041 3.00965,13.11377 -0.10749,19.10097 -1.27995,10.03663 -8.26477,7.36136 -9.7664,1.05758 -1.31303,-3.36263 -2.22214,-6.88964 -3.99613,-10.17621 -4.78731,-10.62186 -9.04827,-21.84061 -16.79555,-30.73042 -10.06546,-9.71501 -36.5109,-15.65799 -36.5109,-15.65799 0,0 1.1711,3.13093 0.51126,7.34361 -0.76889,5.76018 3.36259,10.25659 6.40766,14.39218 1.50319,5.56355 0.51724,13.19641 -5.3848,15.76151 -5.92766,3.46315 -9.46872,11.21604 -7.01631,17.83823 3.44927,2.10676 13.20216,5.99473 6.47586,10.33064 -4.48197,2.28368 -10.24667,4.61679 -11.05893,10.29118 -1.67217,7.09001 6.54015,9.65403 11.93675,7.63532 4.9345,-1.3078 12.63505,0.49525 13.63957,-6.54704 0.36501,-4.76388 4.89369,-10.27737 9.06354,-5.04057 4.68169,4.75445 8.35798,11.98448 15.62288,13.01163 4.61721,0.58647 7.41412,-5.18326 10.81963,-7.63364 5.63715,-3.29194 8.46485,7.21321 13.11205,8.66038 6.13129,2.51438 12.36011,-2.38479 15.92818,-7.03043 6.52274,-7.59524 4.34068,-18.7922 -0.0325,-26.88357 -3.35322,-4.83034 -5.27567,-10.62702 -9.26311,-14.99248 -0.83786,-1.00978 -2.41963,-1.25264 -3.58523,-0.73088 z"
           id="path3869"
           inkscape:connector-curvature="0"
           sodipodi:nodetypes="ccccccccccccccccccccccc" />
        <path
           style="fill:#ff0000;stroke:none"
           d="m 395.17857,356.73718 c -0.18895,1.50507 0.58594,3.72446 2.44514,3.44612 1.67705,0.16012 2.91906,2.16759 2.21009,3.72309 -0.30725,2.0419 1.15448,3.70393 2.03684,5.39464 1.01844,1.24011 2.18074,2.84515 3.98239,2.73277 1.62662,-0.86533 0.58022,-3.3243 -0.91275,-3.70047 -1.19293,-0.56412 -2.0123,-3.00302 -0.14104,-3.07527 2.55274,0.0508 4.32886,2.2955 5.36197,4.40207 1.17554,2.06044 2.0984,4.321 3.69268,6.10305 1.13738,0.93791 2.26711,2.42546 3.8911,2.30943 1.79714,-0.29432 2.83132,-1.96643 4.19469,-2.98702 2.3382,-2.09657 2.32403,-5.86299 0.56468,-8.31204 -0.81949,-1.38786 -2.16979,-2.36507 -3.70987,-2.81154 -6.73756,-2.31792 -13.41419,-4.8159 -20.12279,-7.21877 -1.49134,-0.53895 -3.51872,-0.0948 -5.01102,-0.63111 0.32739,0.53573 1.19051,0.0893 1.51789,0.62505 z"
           id="path3879"
           inkscape:connector-curvature="0"
           sodipodi:nodetypes="cccccccccccccccc" />
      </g>
      <g
         id="g3930">
        <path
           style="fill:#000000;fill-opacity:1;stroke:none"
           d="m 494.14736,459.93753 c 0.31729,0.77962 1.01297,1.62416 1.93977,1.53905 0.56579,-0.023 0.74003,-0.7465 0.48068,-1.16922 -0.28332,-0.53825 -0.69024,-1.0102 -1.11654,-1.43851 -1.0398,-0.8712 -1.76154,-1.24938 -3.02444,-1.52177 -1.61756,-0.27459 -3.39847,-0.23923 -4.82123,0.67533 -0.88814,0.52662 -1.75772,1.09444 -2.57921,1.71776 -1.0053,0.9994 -0.93898,2.64326 -0.34366,3.83933 0.31904,0.59778 0.85529,1.3118 1.61682,1.2338 0.47853,-0.004 1.10888,-0.44334 0.82424,-0.97419 -0.38724,-0.53832 -0.99487,-1.04796 -0.94903,-1.77885 1.81492,-3.28506 5.2732,-3.7643 7.9726,-2.12273 z"
           id="path3833"
           inkscape:connector-curvature="0"
           sodipodi:nodetypes="cccccccccccc" />
        <path
           sodipodi:type="inkscape:offset"
           inkscape:radius="0.066376872"
           inkscape:original="M 491.5625 459.71875 C 491.19432 459.62218 490.81784 459.7976 490.4375 459.8125 C 490.40034 459.81348 490.3496 459.8105 490.3125 459.8125 C 489.99834 459.8311 489.48661 459.9375 489.375 459.9375 C 489.26339 459.9375 488.83036 460.00895 488.71875 460.03125 C 488.60714 460.05356 488.25269 460.37087 488 460.53125 C 487.76079 460.68308 487.39563 460.72572 487.25 460.96875 C 487.00512 461.37742 487.08264 461.91843 487.21875 462.375 C 487.37443 462.89723 487.7825 463.32218 488.15625 463.71875 C 488.65755 464.25066 489.24068 464.73061 489.875 465.09375 C 490.55371 465.4823 491.83929 465.9375 492.0625 465.9375 C 492.28572 465.9375 493.40502 466.14278 493.9375 465.8125 C 494.31162 465.58044 494.43973 465.06868 494.59375 464.65625 C 494.80819 464.08206 495.08891 463.43768 494.9375 462.84375 C 494.82383 462.39784 494.36476 462.12823 494.0625 461.78125 C 493.76167 461.43591 493.47364 461.07825 493.125 460.78125 C 492.64744 460.37443 492.16932 459.87791 491.5625 459.71875 z "
           style="fill:#000000;fill-opacity:1;stroke:none"
           id="path3851"
           d="m 491.28125,459.625 c -0.29307,0.008 -0.57248,0.11437 -0.84375,0.125 -0.032,8.4e-4 -0.0811,-0.002 -0.125,0 -0.16241,0.01 -0.38094,0.0335 -0.5625,0.0625 -0.0908,0.0145 -0.18221,0.0211 -0.25,0.0313 -0.0678,0.0102 -0.10764,0.0313 -0.125,0.0313 -0.07,0 -0.20671,0.0105 -0.34375,0.0313 -0.13704,0.0208 -0.25388,0.0508 -0.3125,0.0625 -0.0509,0.0102 -0.10106,0.0256 -0.15625,0.0625 -0.0552,0.0369 -0.12011,0.10493 -0.1875,0.15625 -0.13479,0.10265 -0.28477,0.20415 -0.40625,0.28125 -0.10908,0.0692 -0.26281,0.12574 -0.40625,0.1875 -0.14344,0.0618 -0.29049,0.14022 -0.375,0.28125 -0.26133,0.43612 -0.16949,1.00503 -0.0313,1.46875 0.16194,0.54322 0.56406,0.94751 0.9375,1.34375 0.50525,0.5361 1.10902,1.0393 1.75,1.40625 0.34534,0.1977 0.84483,0.39928 1.28125,0.5625 0.21821,0.0816 0.39802,0.16942 0.5625,0.21875 0.16448,0.0493 0.29664,0.0625 0.375,0.0625 0.0456,0 0.16727,0.0171 0.3125,0.0313 0.14523,0.0141 0.31036,0.0262 0.5,0.0313 0.37929,0.0102 0.80457,-0.008 1.09375,-0.1875 0.4055,-0.25152 0.53556,-0.78063 0.6875,-1.1875 0.21349,-0.57165 0.50285,-1.2509 0.34375,-1.875 -0.12265,-0.48116 -0.58342,-0.72778 -0.875,-1.0625 -0.2997,-0.34405 -0.61382,-0.72889 -0.96875,-1.03125 -0.47391,-0.40371 -0.93119,-0.89692 -1.5625,-1.0625 -0.0995,-0.0261 -0.21481,-0.0338 -0.3125,-0.0313 z" />
        <g
           id="g3924">
          <path
             sodipodi:nodetypes="cccccccccccccccc"
             inkscape:connector-curvature="0"
             id="path3055"
             d="m 280.35715,448.16575 c -17.84192,-6.07015 -6.1723,-20.44411 5.76628,-32.6529 l 13.16229,2.6529 -15.26786,0.26786 15.08928,2.23214 -19.28571,1.33929 26.69643,1.25 -28.03572,2.14286 30.625,0.35714 -33.39285,5.08928 26.07143,-0.625 -26.60715,7.14286 28.30357,-2.23214 -26.25,7.58928 31.25,-5.53571 -28.03571,11.07143"
             style="fill:#000000;fill-opacity:1;stroke:none" />
          <path
             sodipodi:nodetypes="csccccccccccccccccc"
             inkscape:connector-curvature="0"
             id="path3827"
             d="m 414.28572,488.96933 c -3.8251,6.69839 -8.68345,6.30376 -14.23307,4.51531 -12.94173,-4.17069 -18.7995,-23.08701 -15.78997,-34.94497 l 13.77304,-2.78463 -14.28572,12.5 16.25,-9.10714 -15,15.53571 18.03572,-14.46429 -15.53572,20 19.10714,-19.64285 -17.14285,24.82143 20.89285,-24.64286 -16.78571,27.5 20.53571,-26.60714 -15.35714,31.07142 17.5,-27.67857 -10.89286,28.75 15.17858,-29.46428 -6.07143,24.64285"
             style="fill:#000000;fill-opacity:1;stroke:none" />
          <path
             sodipodi:nodetypes="cssccccccccccccccccc"
             inkscape:connector-curvature="0"
             id="path3831"
             d="m 205.33112,317.75713 c -4.5988,-3.6887 -5.81203,-5.50192 -2.98862,-18.46556 0.91766,-4.21338 0.97926,-7.27826 2.22604,-9.53117 3.3919,-6.12908 9.08942,-6.24865 15.49379,-7.13493 l 4.58053,11.16528 -10.35715,-9.82143 9.28572,15.53572 -13.03572,-14.64286 14.82143,20 -18.92857,-18.92857 21.96429,28.92857 -24.28572,-23.57143 23.03572,26.42857 -25,-21.25 18.92857,18.75 -20.17857,-11.60714 19.46428,14.82143 -19.64285,-7.85714 26.25,12.85714 -21.60715,-5.89286"
             style="fill:#000000;fill-opacity:1;stroke:none" />
          <path
             sodipodi:nodetypes="cccccccccccccc"
             inkscape:connector-curvature="0"
             id="path3908"
             d="m 388.51913,340.30226 14.78661,16.27207 -8.7041,-18.96971 10.90221,17.54446 -5.29958,-18.57887 9.07651,21.10425 -5.82447,-21.80584 11.00272,23.42906 -6.35275,-22.38642 10.48155,21.20328 -6.2664,-18.96664 12.01319,20.51777 -7.14991,-17.90041 c -10.29846,-9.13751 -23.81042,-5.53996 -28.41304,-1.41836"
             style="fill:#000000;stroke:none" />
        </g>
      </g>
    </g>
  </g>
  <g
     inkscape:groupmode="layer"
     id="layer3"
     inkscape:label="Capa#1"
     style="display:inline"
     sodipodi:insensitive="true"
     transform="translate(-199.87912,-176.45763)">
    <path
       style="opacity:0.12156863;fill:#000000;stroke:none"
       d="m 517.70318,453.08918 c -10.28435,15.9149 -31.73635,13.48119 -47.84215,10.61968 -51.67405,-8.05267 -107.12807,-9.07136 -152.73302,-37.83596 -36.18885,-26.20178 -62.67593,-63.74329 -82.59435,-103.24813 -15.65584,-36.38069 -11.31534,-79.45413 8.55318,-113.35651 4.06792,-7.59597 13.92313,-22.17603 17.15971,-23.62034 -7.27065,16.55889 -18.69857,31.7797 -20.28927,50.32456 -8.17855,28.01858 -14.5158,61.30073 3.52534,86.98761 11.38871,15.73286 35.54516,17.5564 42.75704,37.15558 4.99575,13.84572 18.70308,31.64196 34.35928,19.95393 9.97041,-7.92088 29.9591,-13.64945 32.26156,4.31076 -1.07923,14.08437 -32.80429,21.40162 -12.88876,36.42415 14.51202,12.62586 35.38433,9.09929 52.41648,4.92968 14.42164,2.71565 27.49461,17.95506 42.29559,5.8741 16.39716,-1.89881 19.07674,21.48955 35.70965,20.86753 14.6574,1.98413 29.76353,2.52829 44.45795,1.31375 l 2.85177,-0.70039 0,0 z"
       id="path3891"
       inkscape:connector-curvature="0" />
    <path
       style="opacity:0.14509804;fill:#000000;stroke:none"
       d="m 507.09658,417.48131 c -14.29373,-4.12376 -19.57137,-24.39315 -36.89141,-21.7352 -19.33026,-2.85632 -39.72579,-4.8468 -56.12152,-16.57233 -11.57091,-8.07125 -22.83524,-17.15758 -36.79421,-20.77378 -15.12257,-4.83592 -31.44293,-5.64329 -45.51848,-13.59436 -17.93374,-8.63349 -34.5256,-20.67298 -45.85084,-37.27909 -12.69565,-17.61947 -28.5233,-32.97029 -39.37422,-51.89747 -0.89976,-8.8621 -2.61428,-28.91357 4.54759,-30.75623 5.94166,11.65648 -1.44879,26.52449 8.57428,37.18276 14.06687,28.10716 36.42409,52.47579 63.94817,67.76793 26.72738,12.42136 55.87328,18.31792 83.0081,29.71182 32.82954,11.35988 66.61004,23.27653 93.23566,46.41837 3.78325,2.42397 10.04344,6.07015 7.23688,11.52758 z"
       id="path3901"
       inkscape:connector-curvature="0" />
  </g>
</svg>
